<?xml version="1.0" encoding="utf-8"?>
<!-- Generator: Adobe Illustrator 19.0.0, SVG Export Plug-In . SVG Version: 6.00 Build 0)  -->
<svg version="1.1" id="Layer_1" xmlns="http://www.w3.org/2000/svg" xmlns:xlink="http://www.w3.org/1999/xlink" x="0px" y="0px"
	 viewBox="0 0 113.1 114.3" style="enable-background:new 0 0 113.1 114.3;" xml:space="preserve">
<style type="text/css">
	.st0{fill:#010101;}
</style>
<g id="XMLID_250_">
	<path id="XMLID_259_" class="st0" d="M80.2,12.9v5.3H22.3V76H17v18.4h81.5V12.9H80.2z M24.9,20.8h55.2V76H24.9V20.8z M95.9,91.7
		H19.7V78.6h2.6v5.3h2.6v-5.3h2.6v9.2h2.6v-9.2h2.6v5.3h2.6v-5.3h2.6v9.2h2.6v-9.2h2.6v5.3H46v-5.3h2.6v9.2h2.6v-9.2h2.6v5.3h2.6
		v-5.3h2.6v9.2h2.6v-9.2h2.6v5.3H67v-5.3h2.6v9.2h2.6v-9.2h2.6v5.3h2.6v-5.3h2.6v9.2h2.6v-9.2H92V76h-9.2v-2.6H88v-2.6h-5.3v-2.6H92
		v-2.6h-9.2v-2.6H88v-2.6h-5.3v-2.6H92v-2.6h-9.2v-2.6H88v-2.6h-5.3V47H92v-2.6h-9.2v-2.6H88v-2.6h-5.3v-2.6H92v-2.6h-9.2v-2.6H88
		v-2.6h-5.3V26H92v-2.6h-9.2v-2.6H88v-2.6h-5.3v-2.6h13.1L95.9,91.7L95.9,91.7z"/>
	<path id="XMLID_254_" class="st0" d="M57.1,31.1L57,31.3H28.9v36.9H42l0,0h30.2V48.2h4.9L57.1,31.1z M70,45.6H44.3l12.9-11L70,45.6
		z M31.5,65.5V33.9h22.4L37.1,48.2H42v17.3H31.5z M69.6,65.5H49.9l0,0h-5.3V48.2h25V65.5z"/>
	<rect id="XMLID_241_" x="61.7" y="54.9" class="st0" width="2.6" height="2.6"/>
	<rect id="XMLID_240_" x="56.5" y="54.9" class="st0" width="2.6" height="2.6"/>
	<rect id="XMLID_132_" x="51.2" y="54.9" class="st0" width="2.6" height="2.6"/>
</g>
</svg>
